<?xml version="1.0" encoding="UTF-8"?>
<svg width="55px" height="25px" viewBox="0 0 55 25" version="1.1" xmlns="http://www.w3.org/2000/svg"
     xmlns:xlink="http://www.w3.org/1999/xlink">
    <g id="Site-(1200)" stroke="none" stroke-width="1" fill="none" fill-rule="evenodd">
        <g id="Index-1200" transform="translate(-370.000000, -48.000000)">
            <g id="First_block">
                <g id="header" transform="translate(370.000000, 40.000000)">
                    <g id="Logo" transform="translate(0.000000, 8.000000)">
                        <path d="M46.75,18.19 L46.75,10.88 L44.506,10.88 L44.506,7.446 L46.852,7.446 L46.852,2.482 L51.068,2.482 L51.068,7.446 L55.012,7.446 L55.012,10.88 L51.068,10.88 L51.068,17.646 C51.068,20.502 53.312,20.91 54.502,20.91 C54.74,20.91 54.944,20.91 55.284,20.842 L55.284,24.616 C54.944,24.65 54.536,24.718 53.958,24.718 C51.544,24.718 46.75,24.004 46.75,18.19 Z M25.772,15.878 C25.772,10.54 29.41,6.8 34.612,6.8 C39.576,6.8 42.296,10.438 42.296,15.028 C42.296,15.572 42.228,16.15 42.16,16.694 L30.226,16.694 C30.498,19.72 32.81,21.284 35.428,21.284 C37.196,21.284 38.998,20.502 40.392,19.38 L42.092,22.474 C40.324,24.038 37.604,24.956 35.122,24.956 C29.376,24.956 25.772,20.808 25.772,15.878 Z M30.328,13.736 L37.978,13.736 C37.944,11.424 36.448,10.064 34.51,10.064 C32.3,10.064 30.736,11.526 30.328,13.736 Z M0,12.444 C0,5.44 5.27,0 12.444,0 C15.606,0 18.938,0.918 21.42,3.06 L19.244,6.324 C17.748,4.998 15.096,4.012 12.818,4.012 C7.412,4.012 4.522,7.82 4.522,12.308 C4.522,17.51 8.092,20.944 12.614,20.944 C14.858,20.944 17.068,19.958 18.666,18.428 L18.666,15.606 L14.96,15.606 L14.96,11.832 L22.61,11.832 L22.61,24.548 L18.87,24.548 L18.87,23.392 C18.87,22.882 18.904,22.372 18.904,22.372 L18.836,22.372 C17.272,23.902 14.586,24.956 11.832,24.956 C5.474,24.956 0,20.026 0,12.444 Z"
                              id="Combined-Shape" fill="#12CF7C"></path>
                    </g>
                </g>
            </g>
        </g>
    </g>
</svg>